<?xml version="1.0" standalone="no"?>
<!DOCTYPE svg PUBLIC "-//W3C//DTD SVG 20010904//EN"
 "http://www.w3.org/TR/2001/REC-SVG-20010904/DTD/svg10.dtd">
<svg version="1.0" xmlns="http://www.w3.org/2000/svg"
 width="500.000000pt" height="500.000000pt" viewBox="0 0 500.000000 500.000000"
 preserveAspectRatio="xMidYMid meet">

<g transform="translate(0.000000,500.000000) scale(0.100000,-0.100000)"
fill="#000000" stroke="none">
<path d="M2395 4399 c-142 -6 -285 -27 -285 -40 0 -5 -19 -9 -42 -9 -53 0
-295 -80 -358 -118 -48 -29 -60 -36 -147 -83 -31 -17 -81 -46 -110 -65 -29
-19 -58 -34 -63 -34 -13 0 -154 -113 -225 -181 -42 -39 -71 -58 -97 -63 -28
-5 -51 -23 -102 -76 -91 -97 -100 -112 -93 -162 5 -36 1 -51 -28 -98 -114
-191 -201 -415 -244 -636 l-18 -91 -280 -459 c-154 -252 -285 -469 -291 -481
-7 -12 -12 -57 -12 -100 l0 -79 133 -33 c90 -22 203 -40 356 -56 190 -20 227
-27 245 -44 12 -11 43 -30 69 -41 33 -15 55 -34 74 -63 49 -78 146 -200 229
-287 58 -61 86 -100 95 -129 25 -82 183 -201 268 -201 51 0 81 -12 123 -49 19
-16 47 -33 64 -36 16 -4 67 -22 114 -40 659 -257 1367 -156 1920 274 171 133
362 349 463 527 23 40 44 74 47 74 3 0 13 -22 23 -50 13 -35 24 -51 40 -55
120 -28 330 -65 367 -65 25 0 118 10 208 22 l162 22 0 72 0 73 -282 438 -282
438 -7 135 c-29 572 -294 1087 -741 1443 -53 42 -99 86 -103 97 -7 23 -143
110 -173 110 -11 0 -25 6 -29 14 -13 21 -51 37 -75 31 -14 -4 -65 10 -130 35
-188 71 -429 122 -478 101 -22 -10 -21 -11 17 -8 23 1 40 0 37 -2 -2 -3 47
-15 111 -28 255 -51 542 -177 740 -325 138 -103 350 -315 433 -433 160 -227
296 -555 336 -811 17 -114 27 -286 16 -279 -15 9 -60 97 -54 106 8 14 -5 47
-23 53 -14 6 -13 3 2 -20 9 -14 15 -28 12 -30 -3 -3 -41 48 -85 114 l-80 118
-74 12 c-40 7 -113 19 -162 28 l-88 15 -48 -53 c-44 -49 -48 -51 -54 -30 -8
25 -34 27 -184 15 l-84 -6 -35 -54 c-20 -29 -37 -53 -39 -53 -2 0 -15 24 -29
54 -37 77 -104 149 -167 177 -47 21 -67 23 -168 22 -168 -2 -170 -3 -194 -96
-11 -42 -23 -77 -27 -77 -3 0 -9 19 -13 41 -12 76 -10 74 -172 89 -102 9 -148
10 -153 2 -3 -6 -37 -142 -74 -304 -72 -307 -76 -323 -80 -317 -1 2 1 99 5
214 4 116 4 265 1 333 l-6 122 -31 0 c-17 -1 -76 -16 -131 -34 l-100 -32 -17
-170 c-9 -93 -18 -184 -20 -201 -1 -18 -5 -33 -8 -33 -3 1 -41 55 -84 121 -44
66 -86 125 -93 131 -10 8 -28 8 -69 -1 -31 -7 -57 -11 -59 -9 -1 1 -17 33 -33
71 -35 76 -40 78 -128 50 l-53 -16 -46 37 c-107 88 -155 288 -105 447 24 79
66 148 133 217 68 70 123 107 199 136 52 20 72 22 114 16 63 -10 141 -49 197
-97 l42 -37 -44 46 c-110 117 -316 141 -461 56 -46 -28 -121 -99 -114 -110 3
-5 1 -7 -5 -6 -6 2 -21 -13 -32 -32 l-22 -35 26 30 c23 26 22 21 -10 -40 -40
-78 -49 -91 -39 -57 4 12 5 22 2 22 -16 0 -46 -139 -45 -209 1 -60 3 -69 9
-41 6 27 7 18 6 -35 -1 -59 4 -80 30 -135 30 -64 81 -124 130 -156 13 -9 24
-19 24 -23 0 -3 -19 -12 -42 -19 -106 -33 -104 -32 -118 -121 -8 -45 -16 -81
-19 -81 -3 0 -17 16 -30 35 -22 33 -27 35 -75 34 -28 0 -75 -4 -104 -8 l-53
-8 -82 93 -82 93 -80 0 c-44 0 -99 -3 -121 -8 l-42 -8 23 86 c131 485 418 891
810 1144 89 57 346 194 365 194 8 0 65 14 125 31 200 57 340 78 600 91 146 7
147 7 60 12 -49 2 -148 1 -220 -2z m-1088 -1291 c-3 -7 -5 -2 -5 12 0 14 2 19
5 13 2 -7 2 -19 0 -25z m980 -440 c-4 -150 -9 -283 -12 -296 -2 -13 -5 -76 -6
-140 -2 -103 -14 -217 -18 -170 -2 31 -67 49 -166 47 -49 -1 -101 -5 -115 -10
-14 -4 -37 -10 -52 -13 -15 -3 -36 -19 -47 -35 l-21 -29 35 -93 c60 -156 33
-108 -39 69 -37 92 -72 171 -76 176 -9 9 -12 -3 -36 -174 -18 -128 -29 -162
-18 -56 5 49 4 67 -4 62 -6 -3 -13 -2 -16 3 -4 5 -37 12 -74 16 -37 3 -79 9
-94 11 -22 4 -28 2 -29 -13 0 -10 -3 -13 -6 -5 -5 13 113 618 125 641 5 8 48
27 97 42 82 26 90 27 102 11 7 -9 56 -83 110 -164 54 -81 101 -148 106 -148 4
0 7 17 7 38 0 68 40 426 49 435 8 8 174 64 195 66 5 1 6 -110 3 -271z m838
257 c99 -26 155 -78 215 -201 39 -78 75 -207 66 -236 -20 -63 -21 -60 119
-235 98 -122 135 -175 134 -193 l-1 -25 -7 25 c-5 24 -81 123 -88 117 -1 -2 1
-17 6 -35 13 -44 -9 -48 -97 -18 -40 13 -72 22 -72 19 0 -2 19 -32 41 -66 23
-34 35 -55 27 -47 -11 11 -182 239 -193 258 -1 1 -9 0 -17 -3 -13 -5 -12 -20
13 -103 15 -53 26 -98 25 -100 -2 -2 -9 12 -15 30 l-11 33 -62 -3 c-67 -4 -88
-17 -88 -58 0 -27 -27 -57 -46 -50 -7 3 -14 -2 -16 -11 -2 -9 -27 109 -57 263
-29 153 -69 357 -87 453 -19 96 -32 176 -30 178 6 6 101 20 146 22 20 0 62 -6
95 -14z m-457 -41 l82 -7 10 -36 c63 -240 183 -761 176 -768 -2 -2 -7 9 -11
26 -3 17 -10 30 -13 30 -19 -3 -33 2 -27 10 10 17 -58 10 -125 -12 -36 -12
-68 -20 -72 -19 -5 1 -8 -13 -9 -30 0 -28 -2 -30 -9 -13 -5 11 -9 64 -9 118
l-1 98 -56 26 c-67 31 -69 29 -79 -71 -3 -39 -10 -87 -15 -106 l-8 -35 -1 46
-1 46 -49 -10 c-43 -8 -51 -14 -61 -41 -27 -72 -30 -77 -48 -74 -9 2 -22 -5
-29 -17 -24 -41 -28 -59 123 604 l58 253 45 -6 c25 -3 83 -9 129 -12z m-1123
-400 c-75 -359 -100 -464 -111 -464 -4 0 -4 9 -1 19 4 15 0 19 -17 15 -33 -6
-54 -45 -47 -86 0 -5 -4 -8 -10 -8 -5 0 -7 -5 -3 -12 5 -7 3 -8 -7 -3 -7 5
-21 10 -29 10 -32 3 -150 40 -150 48 0 4 -9 3 -19 -3 -28 -15 -38 -13 -63 12
-27 27 -27 27 -152 33 -54 3 -102 8 -107 11 -5 3 -18 -14 -28 -38 -38 -84 -19
-19 87 297 l107 320 110 16 c61 9 112 15 113 14 5 -5 -8 -63 -78 -335 -33
-129 -60 -247 -60 -261 0 -15 8 -37 18 -49 16 -19 22 -21 40 -11 26 14 73 82
95 138 9 23 28 106 43 185 27 151 83 420 88 425 5 5 251 91 254 88 1 -1 -31
-164 -73 -361z m2461 345 l133 -21 88 -137 c48 -75 133 -208 188 -296 56 -88
114 -179 128 -202 41 -64 24 -52 -22 16 l-40 59 -48 -5 c-26 -3 -53 -9 -58
-13 -6 -5 -35 -8 -64 -6 -49 2 -51 1 -33 -13 21 -17 46 -60 39 -67 -2 -3 -10
8 -16 24 -9 22 -28 35 -86 60 -41 17 -75 29 -75 27 0 -3 14 -54 31 -115 17
-61 28 -114 25 -117 -3 -3 -8 6 -11 20 -7 26 -20 34 -125 78 l-65 27 -6 -22
c-6 -23 -39 140 -94 464 -20 113 -38 217 -41 233 -7 33 -15 32 152 6z m-3127
-32 l25 -32 -26 23 -26 24 -15 -24 c-19 -30 -303 -495 -350 -573 -19 -33 -34
-61 -32 -63 3 -3 291 34 331 43 19 4 11 -18 -59 -180 -45 -101 -82 -183 -84
-181 -2 2 3 18 11 37 19 48 30 85 21 77 -3 -3 -22 11 -41 32 -27 30 -45 40
-91 49 -32 6 -108 29 -169 50 l-111 39 -47 -77 c-41 -67 -95 -143 -83 -116 7
16 529 879 540 893 6 8 38 12 96 11 85 0 86 -1 110 -32z m2830 -29 c51 -165
164 -598 157 -605 -2 -2 -7 4 -10 15 -5 16 -14 18 -61 15 -29 -2 -57 1 -60 7
-3 5 -13 10 -22 10 -9 0 -22 8 -29 18 -11 14 -11 10 -3 -27 5 -24 8 -45 6 -47
-3 -3 -197 614 -197 628 0 7 52 12 162 16 44 2 47 1 57 -30z m-2737 -80 c46
-58 28 -45 -27 20 -27 31 -39 48 -26 37 13 -11 37 -37 53 -57z m1975 -650 c-3
-8 -6 -5 -6 6 -1 11 2 17 5 13 3 -3 4 -12 1 -19z m700 -45 c-3 -10 -5 -4 -5
12 0 17 2 24 5 18 2 -7 2 -21 0 -30z m-2247 -80 c-13 -32 -27 -62 -32 -68 -5
-5 0 15 13 45 12 30 24 63 26 73 3 10 8 16 11 13 2 -3 -6 -31 -18 -63z m-649
-34 c-11 -30 -20 -49 -20 -43 -1 15 30 106 35 101 2 -2 -5 -28 -15 -58z m1862
-79 c5 -4 17 -194 28 -421 22 -471 27 -659 17 -675 -5 -7 -44 -6 -130 2 -68 7
-133 13 -145 13 -30 1 -47 81 -41 201 l4 92 -52 -104 c-29 -57 -58 -109 -66
-115 -12 -10 -186 -39 -192 -32 -32 47 -67 113 -72 137 -12 62 -20 40 -32 -85
-7 -70 -14 -128 -16 -130 -2 -2 -58 2 -126 9 l-123 12 -53 43 c-30 24 -58 42
-63 39 -5 -3 -20 4 -35 15 -14 11 -26 17 -26 12 0 -4 -5 0 -11 10 -6 9 -14 15
-20 12 -5 -4 -9 -1 -9 6 0 7 -3 9 -6 6 -19 -19 -280 226 -403 378 -85 104
-134 175 -127 182 3 3 29 -11 58 -31 29 -20 62 -36 73 -37 11 0 14 -3 7 -6
-10 -4 -10 -8 -1 -19 15 -19 33 -18 25 1 -4 12 5 15 47 15 29 0 95 13 148 28
l96 28 27 -23 c37 -31 71 -38 130 -26 28 6 53 9 55 7 2 -1 -1 -48 -6 -104 -5
-55 -6 -105 -3 -110 6 -10 30 174 66 513 l17 157 47 0 c26 0 88 -3 137 -6 l91
-7 108 -183 108 -183 96 184 c53 101 102 190 108 198 9 10 39 12 134 9 68 -2
127 -8 131 -12z m668 -6 c104 -31 185 -83 258 -167 l32 -36 -49 -83 -49 -83
-171 -3 -172 -2 -1 -118 c-1 -64 -2 -130 -3 -145 l-3 -29 259 4 c182 2 258 0
258 -8 0 -25 -83 -135 -166 -221 -103 -106 -166 -141 -274 -150 -228 -19 -449
160 -490 396 -14 80 3 288 30 367 46 132 177 252 307 283 62 15 176 12 234 -5z
m862 -316 c-33 -97 -280 -379 -457 -522 -114 -92 -202 -149 -334 -215 -57 -28
-100 -56 -97 -61 3 -6 0 -10 -7 -11 -36 -2 -61 -8 -150 -37 -54 -18 -155 -44
-225 -59 -119 -25 -146 -27 -373 -28 -254 0 -345 10 -491 53 -55 16 -77 32
-45 32 8 0 21 8 28 19 8 12 30 20 58 24 25 2 85 13 134 24 l90 20 20 -24 c29
-33 114 -52 250 -54 141 -2 145 2 146 144 0 53 3 97 7 97 4 0 32 -24 63 -54
66 -65 131 -100 225 -122 99 -23 187 -15 256 23 30 16 60 28 67 25 6 -2 12 2
12 8 0 7 7 10 16 6 8 -3 13 -2 10 3 -3 4 6 13 20 20 15 6 23 7 19 1 -20 -33
76 44 147 118 88 91 128 157 128 210 0 30 -2 32 -37 34 -21 1 -48 1 -60 0 -27
-1 -29 10 -6 29 29 25 73 102 73 130 0 38 -29 45 -84 20 -54 -23 -125 -92
-149 -143 l-18 -38 -114 0 -115 0 0 94 0 94 48 6 c26 3 92 8 146 12 94 6 101
8 131 38 17 17 38 43 47 57 l17 27 58 -14 c32 -8 93 -14 136 -14 65 0 84 4
109 21 28 20 38 21 136 15 96 -6 110 -4 137 13 42 28 44 26 28 -21z m-2823
-53 c-14 -8 -29 -14 -35 -14 -5 0 1 6 15 14 14 8 30 14 35 14 6 0 -1 -6 -15
-14z m277 -27 c-3 -8 -6 -5 -6 6 -1 11 2 17 5 13 3 -3 4 -12 1 -19z m2023 -88
c0 -33 -25 -73 -69 -113 -37 -33 -47 -37 -96 -37 l-56 0 15 28 c15 29 85 98
126 126 36 24 80 21 80 -4z"/>
<path d="M2104 2862 c-6 -4 -16 -65 -23 -137 -13 -156 -14 -185 -2 -167 7 11
11 11 24 -2 14 -15 18 -13 46 14 24 25 30 38 28 70 -1 22 -4 40 -7 40 -3 0 -7
11 -8 25 -1 14 -13 48 -27 75 -28 55 -31 76 -12 83 6 3 8 6 2 6 -5 0 -15 -3
-21 -7z"/>
<path d="M1785 2704 c-5 -1 -42 -12 -81 -24 l-71 -21 -12 -56 c-13 -68 -14
-94 -3 -75 6 9 17 0 36 -30 44 -69 89 -98 155 -100 31 0 63 -1 71 0 8 1 25 3
38 4 25 3 40 39 26 61 -5 7 2 1 15 -13 13 -14 20 -18 15 -10 -15 30 -85 130
-90 130 -3 0 3 -12 14 -27 51 -75 39 -70 -25 10 -56 70 -77 106 -69 115 4 3
13 -3 22 -14 15 -19 15 -19 5 1 -15 32 -35 53 -46 49z"/>
<path d="M3024 2868 c30 -28 53 -55 51 -59 -3 -4 21 -10 52 -14 31 -4 63 -10
72 -13 14 -5 14 -4 1 14 -8 10 -11 16 -6 12 4 -4 19 -3 32 2 19 8 27 4 50 -23
l26 -32 -19 34 c-44 81 -141 131 -255 131 l-59 0 55 -52z"/>
<path d="M3050 2781 c0 -14 62 -264 66 -270 4 -4 66 13 110 29 l22 9 -19 68
c-10 37 -23 87 -28 109 -11 39 -13 42 -56 47 -25 4 -56 9 -70 13 -16 4 -25 2
-25 -5z"/>
<path d="M2942 2700 c0 -14 2 -19 5 -12 2 6 2 18 0 25 -3 6 -5 1 -5 -13z"/>
<path d="M2952 2650 c0 -14 2 -19 5 -12 2 6 2 18 0 25 -3 6 -5 1 -5 -13z"/>
<path d="M2498 2846 c-2 -23 0 -32 8 -29 12 4 81 -83 77 -98 -2 -5 9 -12 25
-15 33 -9 42 -20 42 -58 0 -16 3 -26 6 -23 4 4 24 -9 46 -28 31 -28 46 -35 73
-33 19 1 35 5 35 8 -1 16 -68 281 -72 286 -6 6 -160 24 -204 24 -29 0 -32 -3
-36 -34z"/>
<path d="M2572 2623 c3 -68 3 -68 34 -71 l30 -3 -4 63 c-5 64 -13 78 -45 78
-16 0 -18 -8 -15 -67z"/>
<path d="M2542 2600 c0 -14 2 -19 5 -12 2 6 2 18 0 25 -3 6 -5 1 -5 -13z"/>
<path d="M2568 2533 c6 -2 18 -2 25 0 6 3 1 5 -13 5 -14 0 -19 -2 -12 -5z"/>
<path d="M1500 2789 c-52 -21 -90 -38 -83 -38 6 -1 24 4 39 9 24 9 30 7 64
-28 36 -37 38 -40 29 -83 -20 -106 -5 -72 21 46 16 71 28 130 27 131 -1 0 -45
-16 -97 -37z"/>
<path d="M1531 2544 c0 -11 3 -14 6 -6 3 7 2 16 -1 19 -3 4 -6 -2 -5 -13z"/>
<path d="M3874 2806 c25 -146 40 -218 44 -203 2 12 13 17 41 17 34 0 40 -4 53
-32 8 -18 12 -26 10 -18 -16 64 -15 70 9 70 56 0 69 -11 103 -84 23 -51 38
-72 52 -73 10 0 33 -7 51 -14 18 -7 35 -10 39 -6 14 13 -16 57 -56 84 -23 16
-64 45 -93 66 -28 20 -60 37 -70 37 -10 0 -15 5 -12 10 4 6 -13 41 -37 78 -23
36 -42 69 -41 72 1 4 -21 11 -48 17 l-51 10 6 -31z"/>
<path d="M4030 2622 c0 -4 10 -35 22 -70 19 -56 25 -63 57 -72 19 -5 36 -8 38
-6 2 2 -11 34 -29 72 -26 53 -39 70 -60 75 -16 4 -28 4 -28 1z"/>
<path d="M556 2595 c-43 -66 -76 -128 -62 -116 13 11 16 11 16 -2 0 -19 28
-49 39 -42 10 6 22 74 24 137 1 27 1 48 1 48 -1 0 -9 -11 -18 -25z"/>
<path d="M3615 2773 c24 -6 66 -47 89 -88 17 -30 17 -27 -4 53 l-11 42 -47 -1
c-26 -1 -38 -4 -27 -6z"/>
<path d="M2307 1108 c-25 -46 -61 -116 -81 -155 -31 -63 -40 -73 -64 -74 -24
-2 -25 -2 -4 -6 13 -3 31 2 41 11 17 16 35 11 42 -13 3 -8 22 19 43 60 21 41
45 81 52 89 9 11 26 170 17 170 -1 0 -21 -37 -46 -82z"/>
<path d="M1891 1155 c-1 -5 -10 -77 -21 -160 -17 -130 -26 -264 -13 -198 5 27
31 20 43 -11 5 -15 10 -2 15 49 4 39 11 88 15 110 7 31 3 61 -15 130 -13 50
-24 86 -24 80z"/>
<path d="M1521 1081 c-1 -8 6 -22 15 -32 15 -16 15 -26 0 -113 -15 -88 -14
-126 4 -126 8 0 15 58 25 190 3 41 2 67 -3 57 -6 -16 -10 -16 -19 -5 -6 7 -13
20 -16 28 -4 12 -6 12 -6 1z"/>
<path d="M2038 863 c-41 -5 -47 -13 -23 -33 13 -11 14 -10 10 2 -5 12 6 18 52
25 57 10 34 13 -39 6z"/>
<path d="M2568 783 c6 -2 18 -2 25 0 6 3 1 5 -13 5 -14 0 -19 -2 -12 -5z"/>
<path d="M3423 1573 c53 -2 97 -6 97 -9 0 -3 -12 -26 -27 -52 -14 -26 -22 -42
-16 -37 6 6 23 31 38 58 l27 47 -109 -2 -108 -2 98 -3z"/>
<path d="M3130 1505 l0 -65 123 2 c92 2 103 3 44 5 -46 2 -75 8 -72 13 4 6 14
10 25 10 10 0 20 7 24 15 3 9 0 15 -10 15 -8 0 -13 4 -9 9 8 14 -6 19 -63 23
-81 5 -67 26 21 31 l72 3 -77 2 -78 2 0 -65z"/>
<path d="M2721 1219 c-2 -111 71 -270 151 -328 18 -14 27 -17 20 -9 -12 15 -9
17 30 20 26 2 60 -4 86 -15 62 -26 61 -16 -1 13 -66 31 -193 157 -231 229 -16
30 -35 75 -42 100 l-12 46 -1 -56z"/>
<path d="M3403 884 c-29 -14 -71 -28 -95 -33 l-43 -7 39 -8 c36 -7 37 -8 20
-22 -11 -9 4 -3 33 11 41 22 122 88 102 84 -2 0 -27 -12 -56 -25z"/>
<path d="M2543 3933 c15 -2 39 -2 55 0 15 2 2 4 -28 4 -30 0 -43 -2 -27 -4z"/>
<path d="M2478 3923 c7 -3 16 -2 19 1 4 3 -2 6 -13 5 -11 0 -14 -3 -6 -6z"/>
<path d="M2701 3916 c110 -24 211 -56 272 -89 61 -32 140 -111 150 -148 13
-49 -106 -116 -214 -120 -27 -1 -29 -3 -9 -6 30 -6 124 14 164 34 81 41 98
109 47 180 -35 48 -86 87 -102 77 -7 -4 -9 -3 -6 3 4 6 -5 15 -19 22 -31 14
-44 14 -24 0 12 -9 11 -10 -5 -4 -60 20 -217 56 -265 60 l-55 5 66 -14z"/>
<path d="M1673 3823 c9 -2 25 -2 35 0 9 3 1 5 -18 5 -19 0 -27 -2 -17 -5z"/>
<path d="M1618 3813 c7 -3 16 -2 19 1 4 3 -2 6 -13 5 -11 0 -14 -3 -6 -6z"/>
<path d="M1520 3787 c-101 -42 -215 -137 -262 -219 -17 -29 -17 -30 -1 -8 72
100 172 179 283 223 36 15 58 26 50 26 -8 1 -40 -10 -70 -22z"/>
<path d="M3676 3612 c88 -65 147 -142 185 -246 11 -28 17 -37 14 -21 -17 90
-98 209 -180 265 -56 38 -71 39 -19 2z"/>
<path d="M3356 3558 c-45 -33 -76 -111 -76 -189 0 -205 174 -393 348 -376 111
12 173 86 178 216 l3 76 -9 -65 c-13 -96 -17 -106 -52 -145 -44 -51 -83 -68
-150 -68 -148 2 -294 164 -306 341 -7 101 21 168 88 215 13 9 20 17 15 17 -6
0 -23 -10 -39 -22z"/>
<path d="M2688 3563 c7 -3 16 -2 19 1 4 3 -2 6 -13 5 -11 0 -14 -3 -6 -6z"/>
<path d="M2748 3553 c12 -2 30 -2 40 0 9 3 -1 5 -23 4 -22 0 -30 -2 -17 -4z"/>
<path d="M3598 3534 c44 -36 112 -125 145 -189 26 -51 37 -58 15 -10 -8 18 -8
29 -1 36 8 8 15 -2 26 -33 9 -23 16 -36 16 -28 3 49 -101 206 -153 231 -13 7
-9 1 9 -15 17 -14 25 -25 20 -26 -6 0 -15 4 -20 8 -6 5 -28 19 -50 31 l-40 22
33 -27z"/>
<path d="M1335 3469 c-4 -6 -5 -12 -2 -15 2 -3 7 2 10 11 7 17 1 20 -8 4z"/>
<path d="M3882 3275 c0 -16 2 -22 5 -12 2 9 2 23 0 30 -3 6 -5 -1 -5 -18z"/>
<path d="M2102 3205 c0 -16 2 -22 5 -12 2 9 2 23 0 30 -3 6 -5 -1 -5 -18z"/>
<path d="M2996 3190 c6 -8 16 -24 22 -35 6 -11 12 -15 12 -8 0 7 -10 22 -22
35 -13 13 -18 17 -12 8z"/>
<path d="M2076 3117 c-25 -72 -67 -136 -130 -195 -63 -59 -117 -89 -200 -108
-57 -13 -58 -14 -15 -10 100 7 233 96 299 197 36 56 77 155 68 164 -2 2 -12
-19 -22 -48z"/>
<path d="M3031 3114 c0 -11 3 -14 6 -6 3 7 2 16 -1 19 -3 4 -6 -2 -5 -13z"/>
<path d="M2836 3086 c9 -22 70 -58 91 -53 14 4 13 5 -4 6 -12 0 -38 15 -58 32
-19 17 -32 24 -29 15z"/>
<path d="M3007 3064 c-10 -13 -27 -24 -39 -24 -12 0 -19 -3 -15 -6 12 -12 56
6 68 27 15 30 7 31 -14 3z"/>
</g>
</svg>
